<svg width="24" height="24" viewBox="0 0 24 24" fill="none" xmlns="http://www.w3.org/2000/svg">
<path d="M12.3818 6.28371C12.2824 5.88619 11.7175 5.88619 11.6181 6.28371L11.2473 7.76708C10.9535 8.94225 10.0359 9.85983 8.86073 10.1536L7.37736 10.5245C6.97985 10.6238 6.97984 11.1888 7.37736 11.2882L8.86073 11.659C10.0359 11.9528 10.9535 12.8704 11.2473 14.0456L11.6181 15.5289C11.7175 15.9264 12.2824 15.9264 12.3818 15.5289L12.7527 14.0456C13.0465 12.8704 13.964 11.9528 15.1392 11.659L16.6226 11.2882C17.0201 11.1888 17.0201 10.6238 16.6226 10.5245L15.1392 10.1536C13.964 9.85983 13.0465 8.94225 12.7527 7.76708L12.3818 6.28371Z" fill="black" fill-opacity="0.84"/>
<path fill-rule="evenodd" clip-rule="evenodd" d="M4.2681 21.9158C7.58755 21.3456 13.4045 20.2433 15.7685 19.1583C19.4235 17.833 22 14.6376 22 10.9062C22 5.9874 17.5228 1.99994 12 1.99994C6.47715 1.99994 2 5.9874 2 10.9062C2 13.3739 3.1269 15.6073 4.9474 17.2203C5.34636 17.5737 5.42165 18.1869 5.07241 18.5896L3.4553 20.4542C2.90328 21.0907 3.43772 22.0584 4.2681 21.9158ZM15.1428 17.7951L15.1991 17.7693L15.2572 17.7482C18.4237 16.6 20.5 13.9015 20.5 10.9062C20.5 6.97446 16.8625 3.49994 12 3.49994C7.1375 3.49994 3.5 6.97446 3.5 10.9062C3.5 12.8977 4.40609 14.7366 5.94214 16.0975C6.88146 16.9298 7.15698 18.4754 6.20562 19.5723L5.71711 20.1356C7.06219 19.8897 8.58613 19.5924 10.0503 19.266C12.2254 18.7813 14.1239 18.2627 15.1428 17.7951Z" fill="black" fill-opacity="0.84"/>
</svg>
