<svg width="24" height="24" viewBox="0 0 24 24" fill="none" xmlns="http://www.w3.org/2000/svg">
<path fill-rule="evenodd" clip-rule="evenodd" d="M8 5.99994C8 3.7908 9.79086 1.99994 12 1.99994C14.2091 1.99994 16 3.7908 16 5.99994V10.9999C16 13.2091 14.2091 14.9999 12 14.9999C9.79086 14.9999 8 13.2091 8 10.9999V5.99994ZM12 3.49994C10.6193 3.49994 9.5 4.61923 9.5 5.99994V10.9999C9.5 12.3807 10.6193 13.4999 12 13.4999C13.3807 13.4999 14.5 12.3807 14.5 10.9999V5.99994C14.5 4.61923 13.3807 3.49994 12 3.49994Z" fill="black" fill-opacity="0.84"/>
<path d="M6 21.2499C6 20.8357 6.33579 20.4999 6.75001 20.4999L11.25 20.5V18.9652C7.18341 18.5871 4 15.1653 4 10.9999V10.7499C4 10.3357 4.33579 9.99994 4.75 9.99994C5.16421 9.99994 5.5 10.3357 5.5 10.7499V10.9999C5.5 14.5898 8.41015 17.4999 12 17.4999C15.5899 17.4999 18.5 14.5898 18.5 10.9999V10.7499C18.5 10.3357 18.8358 9.99994 19.25 9.99994C19.6642 9.99994 20 10.3357 20 10.7499V10.9999C20 15.1653 16.8166 18.5871 12.75 18.9652V20.5L17.25 20.5001C17.6642 20.5001 18 20.8359 18 21.2501C18 21.6643 17.6642 22.0001 17.25 22.0001L6.74999 21.9999C6.33578 21.9999 5.99999 21.6642 6 21.2499Z" fill="black" fill-opacity="0.84"/>
</svg>
