<svg width="24" height="24" viewBox="0 0 24 24" fill="none" xmlns="http://www.w3.org/2000/svg">
<path fill-rule="evenodd" clip-rule="evenodd" d="M10.625 3C6.41383 3 3 6.41383 3 10.625C3 14.8362 6.41383 18.25 10.625 18.25C12.4605 18.25 14.1445 17.6015 15.4604 16.521L19.7197 20.7803C20.0126 21.0732 20.4874 21.0732 20.7803 20.7803C21.0732 20.4874 21.0732 20.0126 20.7803 19.7197L16.521 15.4604C17.6015 14.1445 18.25 12.4605 18.25 10.625C18.25 6.41383 14.8362 3 10.625 3ZM4.5 10.625C4.5 7.24226 7.24226 4.5 10.625 4.5C14.0077 4.5 16.75 7.24226 16.75 10.625C16.75 14.0077 14.0077 16.75 10.625 16.75C7.24226 16.75 4.5 14.0077 4.5 10.625Z" fill="black" fill-opacity="0.84"/>
</svg>
